<?xml version="1.0" standalone="no"?><!DOCTYPE svg PUBLIC "-//W3C//DTD SVG 1.1//EN" "http://www.w3.org/Graphics/SVG/1.1/DTD/svg11.dtd"><svg t="1722445017193" class="icon" viewBox="0 0 1024 1024" version="1.1" xmlns="http://www.w3.org/2000/svg" p-id="1537" xmlns:xlink="http://www.w3.org/1999/xlink" width="200" height="200"><path d="M331.008 85.312h361.984c34.304 0 62.72 0 85.76 1.92 24 1.92 46.08 6.144 66.752 16.704 32.064 16.384 58.24 42.496 74.56 74.56 10.56 20.736 14.72 42.752 16.704 66.752 1.92 23.04 1.92 51.456 1.92 85.76v361.984c0 34.304 0 62.72-1.92 85.76-1.92 24-6.144 46.08-16.704 66.752-16.384 32.064-42.496 58.24-74.56 74.56-20.736 10.56-42.752 14.72-66.752 16.704-23.04 1.92-51.456 1.92-85.76 1.92H331.008c-34.304 0-62.72 0-85.76-1.92-24-1.92-46.08-6.144-66.752-16.64a170.688 170.688 0 0 1-74.56-74.624c-10.56-20.736-14.72-42.752-16.704-66.752-1.92-23.04-1.92-51.456-1.92-85.76V331.072c0-34.368 0-62.72 1.92-85.76 1.92-24.064 6.144-46.08 16.704-66.816 16.384-32.064 42.496-58.24 74.56-74.56 20.736-10.56 42.752-14.72 66.752-16.704 23.04-1.92 51.456-1.92 85.76-1.92zM252.224 172.288c-18.752 1.536-28.288 4.288-34.944 7.68-16.064 8.192-29.12 21.248-37.312 37.312-3.392 6.656-6.144 16.192-7.68 34.944-1.6 19.2-1.6 44.032-1.6 80.576v358.4c0 36.544 0 61.44 1.6 80.64 1.536 18.688 4.288 28.224 7.68 34.88 8.192 16.064 21.248 29.12 37.312 37.312 6.656 3.392 16.192 6.144 34.944 7.68 19.2 1.6 44.032 1.6 80.576 1.6h358.4c36.544 0 61.44 0 80.64-1.6 18.688-1.536 28.224-4.288 34.88-7.68 16.064-8.192 29.12-21.248 37.312-37.312 3.392-6.656 6.144-16.192 7.68-34.944 1.6-19.2 1.6-44.032 1.6-80.576V332.8c0-36.544 0-61.44-1.6-80.64-1.536-18.688-4.288-28.224-7.68-34.88a85.312 85.312 0 0 0-37.312-37.312c-6.656-3.392-16.192-6.144-34.944-7.68-19.2-1.6-44.032-1.6-80.576-1.6H332.8c-36.544 0-61.44 0-80.64 1.6z m259.584 157.248c-56.128-39.808-133.44-45.184-194.88 7.296-70.592 60.288-81.088 162.432-24.96 234.624 29.696 38.208 101.76 105.152 146.816 145.856l0.896 0.832c6.848 6.208 13.696 12.416 20.096 17.28 7.232 5.568 16 11.2 27.328 14.592 16 4.864 33.536 4.864 49.472 0 11.328-3.392 20.16-9.024 27.328-14.528 6.4-4.928 13.312-11.136 20.096-17.28l0.96-0.896c44.992-40.704 117.12-107.648 146.816-145.856 55.68-71.68 47.104-174.72-25.408-235.008-61.888-51.392-138.432-46.72-194.56-6.912z m-32.384 85.12c-30.08-35.2-74.624-40.704-107.072-12.928-36.288 31.04-40.832 81.6-13.056 117.376 24.128 30.976 89.664 92.352 136.704 134.912a294.528 294.528 0 0 0 15.872 13.824L512 667.712c3.264-2.496 7.552-6.272 15.68-13.696 47.04-42.56 112.64-103.936 136.704-134.912 28.16-36.288 23.68-86.912-12.608-116.992-33.792-28.16-77.696-22.272-107.52 12.544a42.688 42.688 0 0 1-64.832 0z" fill="#1296db" p-id="1538"></path></svg>